# File created by Blade
# Date/Time:  Fri Jan 16 14:33:41 2015
# Frame Rate: 120.000 fps
#------------------------------------------------------
:FULLY-SPECIFIED
:DEGREES
3007
root 19.691665 35.695872 -24.306232 -172.047766 -5.524061 -178.874784
Spine -18.277147 -5.544406 0.894289
Head 9.105969 -4.287556 1.069626
LeftShoulder -11.572080 -25.374849 15.599541
LeftArm 5.527714 5.752068 -5.557008
LeftForeArm 10.851100 -0.000000 4.806259
LeftHand -1.794093 -0.000000 -6.443015
LeftHandThumb1 -26.253704 0.000000 33.147579
RightShoulder -11.775733 -9.474011 -7.166813
RightArm 12.641412 38.313493 12.975240
RightForeArm -37.829249 -0.000000 6.531160
RightHand -4.998716 -0.000000 5.304684
RightHandThumb1 -24.326973 -0.000000 -32.862282
LeftUpLeg -0.578583 7.231359 1.994907
LeftLeg -4.992834 -0.000000 0.000000
LeftFoot -19.742105 25.197038 -14.964902
LeftToeBase 25.203967 -0.000000 -0.000000
RightUpLeg -0.699714 -13.541960 4.457478
RightLeg -3.034105 -0.000000 0.000000
RightFoot -21.870853 -24.758274 17.346727
RightToeBase 22.562389 -0.000000 -0.000000
3008
root 19.690374 35.696672 -24.308535 -172.012326 -5.430952 -178.861409
Spine -18.327702 -5.568141 0.935768
Head 9.132236 -4.206721 1.114586
LeftShoulder -11.657606 -25.477507 15.810469
LeftArm 5.544594 5.552764 -5.336195
LeftForeArm 11.061532 0.000000 4.679901
LeftHand -1.850406 -0.000000 -6.446015
LeftHandThumb1 -26.253704 0.000000 33.147579
RightShoulder -11.893468 -9.529237 -7.226678
RightArm 12.395896 38.554044 12.945072
RightForeArm -37.903558 -0.000000 6.465899
RightHand -4.865477 -0.000000 5.428317
RightHandThumb1 -24.326973 -0.000000 -32.862282
LeftUpLeg -0.586790 7.276209 1.993298
LeftLeg -5.007637 -0.000000 0.000000
LeftFoot -19.742522 25.227493 -14.980674
LeftToeBase 25.132097 -0.000000 -0.000000
RightUpLeg -0.740240 -13.480208 4.465668
RightLeg -3.028032 -0.000000 0.000000
RightFoot -21.860541 -24.760426 17.363941
RightToeBase 22.399345 -0.000000 -0.000000
3009
root 19.688774 35.697331 -24.310666 -171.973051 -5.337250 -178.854702
Spine -18.386513 -5.590112 0.968754
Head 9.174016 -4.155934 1.145211
LeftShoulder -11.725421 -25.612655 16.028288
LeftArm 5.523045 5.427861 -5.126360
LeftForeArm 11.244443 0.000000 4.568756
LeftHand -1.885447 -0.000000 -6.577940
LeftHandThumb1 -26.253704 0.000000 33.147579
RightShoulder -12.047974 -9.624867 -7.251688
RightArm 12.258691 38.871965 12.973359
RightForeArm -37.982705 -0.000000 6.428038
RightHand -4.901692 -0.000000 5.467846
RightHandThumb1 -24.326973 -0.000000 -32.862282
LeftUpLeg -0.606439 7.334552 1.983227
LeftLeg -5.010603 -0.000000 0.000000
LeftFoot -19.773512 25.250395 -15.014159
LeftToeBase 25.149901 -0.000000 -0.000000
RightUpLeg -0.782580 -13.422732 4.467645
RightLeg -3.025573 -0.000000 0.000000
RightFoot -21.838121 -24.721859 17.364962
RightToeBase 22.357031 -0.000000 -0.000000
3010
root 19.687497 35.697675 -24.313499 -171.942563 -5.246728 -178.842518
Spine -18.433483 -5.616434 1.006558
Head 9.211493 -4.083588 1.190684
LeftShoulder -11.795414 -25.749564 16.241765
LeftArm 5.484527 5.231525 -4.934973
LeftForeArm 11.449624 -0.000000 4.452768
LeftHand -1.806157 -0.000000 -6.689682
LeftHandThumb1 -26.253704 0.000000 33.147579
RightShoulder -12.102332 -9.510935 -7.312697
RightArm 11.889692 39.001246 12.822960
RightForeArm -37.966008 -0.000000 6.353963
RightHand -4.856191 -0.000000 5.504989
RightHandThumb1 -24.326973 -0.000000 -32.862282
LeftUpLeg -0.611845 7.388468 1.981642
LeftLeg -5.022316 -0.000000 0.000000
LeftFoot -19.796671 25.273186 -15.038611
LeftToeBase 25.153206 -0.000000 -0.000000
RightUpLeg -0.811847 -13.356136 4.474251
RightLeg -3.032355 -0.000000 0.000000
RightFoot -21.820110 -24.699137 17.368184
RightToeBase 22.354076 -0.000000 -0.000000
3011
root 19.685106 35.698008 -24.315171 -171.889223 -5.162386 -178.836226
Spine -18.509623 -5.670522 1.062661
Head 9.240313 -3.987884 1.198793
LeftShoulder -11.924089 -25.857124 16.460589
LeftArm 5.491234 4.941427 -4.780047
LeftForeArm 11.647853 -0.000000 4.300956
LeftHand -1.834055 0.000000 -6.882245
LeftHandThumb1 -26.253704 0.000000 33.147579
RightShoulder -12.147891 -9.527149 -7.407353
RightArm 11.620378 39.326917 12.819792
RightForeArm -38.087728 -0.000000 6.328217
RightHand -4.877626 -0.000000 5.496960
RightHandThumb1 -24.326973 -0.000000 -32.862282
LeftUpLeg -0.647450 7.435429 1.970225
LeftLeg -5.025395 -0.000000 0.000000
LeftFoot -19.829251 25.289317 -15.104762
LeftToeBase 25.132404 -0.000000 -0.000000
RightUpLeg -0.865067 -13.295757 4.479731
RightLeg -3.038440 -0.000000 0.000000
RightFoot -21.803964 -24.681332 17.359271
RightToeBase 22.381477 -0.000000 -0.000000
3012
root 19.684432 35.698007 -24.316022 -171.839289 -5.074020 -178.824123
Spine -18.570354 -5.687799 1.096070
Head 9.251419 -3.957588 1.233112
LeftShoulder -12.022658 -25.952178 16.667074
LeftArm 5.497836 4.687722 -4.630891
LeftForeArm 11.812515 -0.000000 4.159588
LeftHand -1.878502 -0.000000 -6.803918
LeftHandThumb1 -26.253704 0.000000 33.147579
RightShoulder -12.206979 -9.549429 -7.461691
RightArm 11.320381 39.683506 12.773903
RightForeArm -38.164066 -0.000000 6.271139
RightHand -4.849854 -0.000000 5.507985
RightHandThumb1 -24.326973 -0.000000 -32.862282
LeftUpLeg -0.677788 7.482835 1.968684
LeftLeg -5.032219 -0.000000 0.000000
LeftFoot -19.840607 25.322658 -15.107633
LeftToeBase 24.796565 -0.000000 -0.000000
RightUpLeg -0.917163 -13.238810 4.492640
RightLeg -3.044610 -0.000000 0.000000
RightFoot -21.772392 -24.626666 17.386676
RightToeBase 22.485642 -0.000000 -0.000000
3013
root 19.681829 35.698034 -24.320157 -171.797654 -4.960151 -178.813334
Spine -18.626930 -5.661369 1.122245
Head 9.254211 -3.919293 1.272454
LeftShoulder -12.108653 -26.089035 16.874245
LeftArm 5.478189 4.521028 -4.484750
LeftForeArm 12.022410 -0.000000 4.055953
LeftHand -1.855008 -0.000000 -6.911926
LeftHandThumb1 -26.253704 0.000000 33.147579
RightShoulder -12.252966 -9.520931 -7.539664
RightArm 10.954204 39.982447 12.686147
RightForeArm -38.287889 -0.000000 6.248388
RightHand -4.875367 -0.000000 5.540741
RightHandThumb1 -24.326973 -0.000000 -32.862282
LeftUpLeg -0.685587 7.577681 1.959784
LeftLeg -5.049685 -0.000000 0.000000
LeftFoot -19.847641 25.334364 -15.102769
LeftToeBase 24.775887 -0.000000 -0.000000
RightUpLeg -0.958061 -13.161980 4.493621
RightLeg -3.045739 -0.000000 0.000000
RightFoot -21.752797 -24.571873 17.315096
RightToeBase 22.636498 -0.000000 -0.000000
3014
root 19.680276 35.698318 -24.321264 -171.747236 -4.875004 -178.793168
Spine -18.691950 -5.660814 1.168725
Head 9.266433 -3.879552 1.288562
LeftShoulder -12.206978 -26.192200 17.069062
LeftArm 5.477953 4.399387 -4.353122
LeftForeArm 12.138587 -0.000000 3.933512
LeftHand -1.855393 0.000000 -6.904834
LeftHandThumb1 -26.253704 0.000000 33.147579
RightShoulder -12.333518 -9.530684 -7.612561
RightArm 10.678482 40.315523 12.657008
RightForeArm -38.382663 -0.000000 6.257317
RightHand -4.944594 -0.000000 5.568875
RightHandThumb1 -24.326973 -0.000000 -32.862282
LeftUpLeg -0.728642 7.641326 1.962234
LeftLeg -5.032550 -0.000000 0.000000
LeftFoot -19.876783 25.336313 -15.089512
LeftToeBase 25.123885 -0.000000 -0.000000
RightUpLeg -1.010100 -13.090054 4.514184
RightLeg -3.050677 -0.000000 0.000000
RightFoot -21.749645 -24.597136 17.342716
RightToeBase 22.442591 -0.000000 -0.000000
3015
root 19.678509 35.698097 -24.321712 -171.695330 -4.783938 -178.778979
Spine -18.758123 -5.674542 1.212841
Head 9.274250 -3.813859 1.316058
LeftShoulder -12.302281 -26.297561 17.258941
LeftArm 5.426302 4.302303 -4.212610
LeftForeArm 12.318595 -0.000000 3.870057
LeftHand -1.929317 -0.000000 -6.865654
LeftHandThumb1 -26.253704 0.000000 33.147579
RightShoulder -12.405602 -9.512110 -7.701843
RightArm 10.442132 40.587518 12.650738
RightForeArm -38.459444 0.000000 6.209533
RightHand -4.940128 -0.000000 5.490339
RightHandThumb1 -24.326973 -0.000000 -32.862282
LeftUpLeg -0.765831 7.691840 1.959945
LeftLeg -5.029569 -0.000000 0.000000
LeftFoot -19.917481 25.356917 -15.127893
LeftToeBase 24.813251 -0.000000 -0.000000
RightUpLeg -1.069878 -13.027227 4.524868
RightLeg -3.045280 -0.000000 0.000000
RightFoot -21.731673 -24.556088 17.362738
RightToeBase 22.373905 -0.000000 -0.000000
3016
root 19.675918 35.698880 -24.324175 -171.634879 -4.678713 -178.757244
Spine -18.842009 -5.647513 1.260211
Head 9.290872 -3.775038 1.328054
LeftShoulder -12.390254 -26.387177 17.437466
LeftArm 5.406690 4.285124 -4.080884
LeftForeArm 12.426057 -0.000000 3.773618
LeftHand -1.991678 -0.000000 -6.893902
LeftHandThumb1 -26.253704 0.000000 33.147579
RightShoulder -12.467163 -9.419155 -7.802483
RightArm 10.097480 40.594133 12.532672
RightForeArm -38.254781 -0.000000 6.210834
RightHand -5.135848 -0.000000 5.445816
RightHandThumb1 -24.326973 -0.000000 -32.862282
LeftUpLeg -0.801436 7.770480 1.959508
LeftLeg -5.038589 -0.000000 0.000000
LeftFoot -19.945229 25.356395 -15.160700
LeftToeBase 25.117242 -0.000000 -0.000000
RightUpLeg -1.141034 -12.947911 4.539139
RightLeg -3.024717 -0.000000 0.000000
RightFoot -21.718647 -24.516841 17.442194
RightToeBase 22.272914 -0.000000 -0.000000
